<svg width="63" height="15" viewBox="0 0 63 15" fill="none" xmlns="http://www.w3.org/2000/svg">
<g id="Group">
<g id="Group_2">
<path id="Vector" d="M32.8633 1.64858C32.8633 0.737167 33.5978 4.673e-05 34.502 4.673e-05C35.4092 4.673e-05 36.1466 0.737167 36.1466 1.64858C36.1466 2.55895 35.4092 3.29688 34.502 3.29688C33.5978 3.29688 32.8633 2.55884 32.8633 1.64858Z" fill="#273B7D"/>
<path id="Vector_2" d="M58.7617 12.6143C58.7617 11.7025 59.4958 10.9645 60.4 10.9645C61.3069 10.9645 62.0442 11.7025 62.0442 12.6143C62.0442 13.5237 61.3069 14.2626 60.4 14.2626C59.4958 14.2626 58.7617 13.5239 58.7617 12.6143Z" fill="#499FDD"/>
<path id="Vector_3" d="M5.92302 11.9019C4.50935 11.9019 3.52694 10.7773 3.52694 9.17007C3.52694 7.56323 4.50935 6.43928 5.92302 6.43928C7.3448 6.43928 8.338 7.56323 8.338 9.17007C8.338 10.8027 7.36549 11.902 5.92302 11.902V11.9019ZM5.92302 4.0383C2.93223 4.0383 0.761719 6.19709 0.761719 9.17007C0.761719 12.1431 2.93223 14.3014 5.92302 14.3014C8.92502 14.3014 11.1046 12.1431 11.1046 9.17007C11.1046 6.19709 8.92502 4.0383 5.92302 4.0383ZM29.6833 9.4267C29.567 9.20752 29.4337 9.02201 29.2917 8.87474L29.2013 8.77855L29.2965 8.68717C29.4338 8.5422 29.5741 8.37032 29.7094 8.17106L32.3487 4.24064H29.1447L27.1617 7.31519C27.0494 7.48009 26.8228 7.56323 26.4835 7.56323H26.0316V1.75056C26.0316 0.587909 25.3086 0.429653 24.5275 0.429653H23.1903L23.1925 14.1502H26.0316V10.0346H26.2975C26.6211 10.0346 26.8416 10.0721 26.9426 10.2483L28.5087 13.2096C28.9462 14.0132 29.3822 14.1502 30.2023 14.1502H32.378L30.7576 11.4653L29.6833 9.4267ZM43.4656 4.01631C42.0216 4.01631 41.1002 4.65895 40.5838 5.20243L40.4114 5.37706L40.3506 5.13956C40.1989 4.55738 39.6877 4.23709 38.9182 4.23709H37.6459L37.6538 14.1468H40.4735V9.57946C40.4735 9.13286 40.5315 8.74535 40.6493 8.39184C40.9632 7.32184 41.8387 6.65652 42.933 6.65652C43.8132 6.65652 44.1571 7.12178 44.1571 8.32428V12.6403C44.1571 13.6666 44.6309 14.1468 45.6562 14.1468H46.998L46.9935 7.84401C46.9935 5.33996 45.7744 4.01631 43.4665 4.01631H43.4656ZM34.5381 4.24144H33.2016L33.2107 11.9035H33.2098V14.1491H34.6364C34.6543 14.1491 34.6687 14.151 34.6867 14.151L35.3512 14.1491H36.0126V14.1452H36.0172L36.0229 5.74579C36.0229 4.73236 35.5393 4.24144 34.5391 4.24144H34.5381ZM16.9986 11.9019C15.585 11.9019 14.6007 10.7773 14.6007 9.17007C14.6007 7.56323 15.585 6.43928 16.9986 6.43928C18.4174 6.43928 19.4133 7.56323 19.4133 9.17007C19.4133 10.8027 18.4412 11.902 16.9986 11.902V11.9019ZM16.9986 4.0383C14.0048 4.0383 11.8338 6.19709 11.8338 9.17007C11.8338 12.1431 14.0048 14.3014 16.9986 14.3014C19.9975 14.3014 22.1806 12.1431 22.1806 9.17007C22.1806 6.19709 19.9975 4.0383 16.9986 4.0383Z" fill="#273B7D"/>
</g>
</g>
</svg>
