<svg width="16" height="16" viewBox="0 0 16 16" fill="none" xmlns="http://www.w3.org/2000/svg">
<g id="book">
<path id="Vector" d="M8.73398 9.2H6.33398C6.17485 9.2 6.02224 9.26321 5.90972 9.37574C5.7972 9.48826 5.73398 9.64087 5.73398 9.8C5.73398 9.95913 5.7972 10.1117 5.90972 10.2243C6.02224 10.3368 6.17485 10.4 6.33398 10.4H8.73398C8.89312 10.4 9.04573 10.3368 9.15825 10.2243C9.27077 10.1117 9.33399 9.95913 9.33399 9.8C9.33399 9.64087 9.27077 9.48826 9.15825 9.37574C9.04573 9.26321 8.89312 9.2 8.73398 9.2ZM11.134 3.2H10.426C10.3022 2.84987 10.0731 2.5466 9.77022 2.33176C9.46731 2.11693 9.10535 2.00104 8.73398 2H7.53399C7.16262 2.00104 6.80066 2.11693 6.49775 2.33176C6.19483 2.5466 5.96577 2.84987 5.84198 3.2H5.13398C4.65659 3.2 4.19876 3.38964 3.86119 3.72721C3.52363 4.06477 3.33398 4.52261 3.33398 5V12.2C3.33398 12.6774 3.52363 13.1352 3.86119 13.4728C4.19876 13.8104 4.65659 14 5.13398 14H11.134C11.6114 14 12.0692 13.8104 12.4068 13.4728C12.7443 13.1352 12.934 12.6774 12.934 12.2V5C12.934 4.52261 12.7443 4.06477 12.4068 3.72721C12.0692 3.38964 11.6114 3.2 11.134 3.2ZM6.93398 3.8C6.93398 3.64087 6.9972 3.48826 7.10972 3.37574C7.22224 3.26321 7.37486 3.2 7.53399 3.2H8.73398C8.89312 3.2 9.04573 3.26321 9.15825 3.37574C9.27077 3.48826 9.33399 3.64087 9.33399 3.8V4.4H6.93398V3.8ZM11.734 12.2C11.734 12.3591 11.6708 12.5117 11.5583 12.6243C11.4457 12.7368 11.2931 12.8 11.134 12.8H5.13398C4.97485 12.8 4.82224 12.7368 4.70972 12.6243C4.5972 12.5117 4.53398 12.3591 4.53398 12.2V5C4.53398 4.84087 4.5972 4.68826 4.70972 4.57574C4.82224 4.46321 4.97485 4.4 5.13398 4.4H5.73398V5C5.73398 5.15913 5.7972 5.31174 5.90972 5.42426C6.02224 5.53679 6.17485 5.6 6.33398 5.6H9.93399C10.0931 5.6 10.2457 5.53679 10.3582 5.42426C10.4708 5.31174 10.534 5.15913 10.534 5V4.4H11.134C11.2931 4.4 11.4457 4.46321 11.5583 4.57574C11.6708 4.68826 11.734 4.84087 11.734 5V12.2ZM9.93399 6.8H6.33398C6.17485 6.8 6.02224 6.86321 5.90972 6.97574C5.7972 7.08826 5.73398 7.24087 5.73398 7.4C5.73398 7.55913 5.7972 7.71174 5.90972 7.82426C6.02224 7.93679 6.17485 8 6.33398 8H9.93399C10.0931 8 10.2457 7.93679 10.3582 7.82426C10.4708 7.71174 10.534 7.55913 10.534 7.4C10.534 7.24087 10.4708 7.08826 10.3582 6.97574C10.2457 6.86321 10.0931 6.8 9.93399 6.8Z" fill="#3B71FE"/>
</g>
</svg>
