<svg width="109" height="15" viewBox="0 0 109 15" fill="none" xmlns="http://www.w3.org/2000/svg">
<g id="Group">
<g id="Group_2">
<path id="Vector" d="M5.42102 11.7879L3.12569 11.7856V9.03648C3.12569 8.44892 3.35306 8.1434 3.85568 8.07309H5.42102C6.53828 8.07309 7.26016 8.77906 7.26096 9.92098C7.26016 11.0929 6.55622 11.7872 5.42102 11.7879ZM3.12569 4.3718V3.64831C3.12569 3.01506 3.39317 2.71389 3.98015 2.67518H5.15464C6.16193 2.67518 6.76526 3.27912 6.76526 4.28935C6.76526 5.0598 6.35227 5.95872 5.19169 5.95872H3.12569V4.3718ZM8.3525 7.11553L7.93751 6.88193L8.29976 6.5716C8.72099 6.2087 9.42722 5.39303 9.42722 3.98361C9.42722 1.82698 7.75741 0.435082 5.17299 0.435082H2.22364V0.434281H1.88784C1.12163 0.462451 0.508573 1.08666 0.5 1.85905V14.0999H1.85352C1.85695 14.1006 1.8581 14.0999 1.85924 14.1006L5.23125 14.0999C8.10419 14.0999 9.95851 12.5334 9.95851 10.1068C9.95851 8.80047 9.35917 7.68352 8.35187 7.11553" fill="#273B7D"/>
<path id="Vector_2" d="M105.217 4.04866C104.047 4.04866 102.916 4.59752 102.19 5.51798L101.986 5.77735L101.825 5.48717C101.303 4.53317 100.404 4.04866 99.1544 4.04866C97.8437 4.04866 96.9647 4.7812 96.5563 5.21669L96.2892 5.50664L96.1864 5.12531C96.0373 4.57645 95.5495 4.27414 94.8105 4.27414H93.6254L93.6139 14.1455H96.3067V9.78793C96.3067 9.40626 96.3539 9.02848 96.4494 8.63364C96.7068 7.5807 97.4131 6.44816 98.6006 6.56142C99.333 6.63173 99.6905 7.19868 99.6905 8.29365V14.1455H102.402V9.78793C102.402 9.31099 102.447 8.95394 102.554 8.59563C102.773 7.59043 103.51 6.55993 104.656 6.55993C105.485 6.55993 105.791 7.03023 105.791 8.29365V12.7024C105.791 13.6998 106.235 14.1455 107.23 14.1455H108.498L108.5 7.84362C108.5 5.32617 107.394 4.04866 105.216 4.04866H105.217ZM80.7161 10.7181C80.7081 10.7279 79.5493 11.9519 78.0237 11.9519C76.6338 11.9519 75.2295 11.0975 75.2295 9.19029C75.2295 7.54359 76.3183 6.39274 77.8767 6.39274C78.3828 6.39274 78.9584 6.57436 79.0485 6.87988L79.0618 6.93141C79.2692 7.6241 79.8976 7.6612 80.0212 7.6612L81.4964 7.6628V6.37087C81.4964 4.6668 79.3328 4.04878 77.8767 4.04878C74.7631 4.04878 72.5039 6.2204 72.5039 9.21102C72.5039 12.2004 74.7385 14.369 77.8197 14.369C80.493 14.369 81.9468 12.6086 81.9604 12.5911L82.038 12.4957L80.8697 10.5541L80.7161 10.7182" fill="#499FDD"/>
</g>
</g>
</svg>
