<svg width="36" height="14" viewBox="0 0 36 14" fill="none" xmlns="http://www.w3.org/2000/svg">
<g id="Group">
<g id="Group_2">
<g id="Group_3">
<path id="Vector" d="M30.4395 7.90201C29.0265 7.90201 28.0415 6.77738 28.0415 5.1702C28.0415 3.56335 29.0265 2.43941 30.4395 2.43941C31.8585 2.43941 32.855 3.56335 32.855 5.1702C32.855 6.8028 31.8823 7.90213 30.4395 7.90213V7.90201ZM30.4395 0.0384188C27.4464 0.0384188 25.2754 2.19721 25.2754 5.1702C25.2754 8.14318 27.4464 10.3015 30.4395 10.3015C33.4387 10.3015 35.6214 8.14318 35.6214 5.1702C35.6214 2.19721 33.4387 0.0384188 30.4395 0.0384188Z" fill="#499FDD"/>
<path id="Vector_2" d="M5.93812 7.46601C4.39654 7.46601 3.84784 6.11866 3.84784 4.85604C3.84784 4.29973 3.98825 2.48665 5.79 2.48665C6.68539 2.48665 7.87867 2.74373 7.87867 4.94936C7.87867 7.02972 6.82265 7.46601 5.93812 7.46601ZM9.34264 0.214829C8.80756 0.214829 8.39576 0.428625 8.18943 0.818885L8.11149 0.970387L7.98082 0.85679C7.52564 0.462178 6.70962 -0.00583553 5.38443 -0.00583553C2.74777 -0.00583553 0.972656 1.97798 0.972656 4.93024C0.972656 7.87894 2.80936 9.93972 5.43746 9.93972C6.33513 9.93972 7.04457 9.72993 7.60685 9.30337L7.82446 9.13962V9.41513C7.82446 10.7387 6.97003 11.4688 5.42113 11.4688C4.6684 11.4688 3.98324 11.2852 3.52509 11.1187C2.92679 10.9379 2.57621 11.0876 2.33364 11.6888L2.10982 12.2435L1.79314 13.0538L1.98933 13.1584C2.98062 13.6854 4.27104 14 5.43746 14C7.83887 14 10.6428 12.7686 10.6428 9.30337L10.653 0.214829H9.34306" fill="#273B7D"/>
</g>
</g>
</g>
</svg>
