<svg width="16" height="16" viewBox="0 0 16 16" fill="none" xmlns="http://www.w3.org/2000/svg">
<g id="icon/calender/line">
<path id="Shape" fill-rule="evenodd" clip-rule="evenodd" d="M5.66403 3.86683C5.63058 4.20372 5.34634 4.46683 5.00065 4.46683C4.65496 4.46683 4.37072 4.20372 4.33728 3.86683H2.66732V4.9335H13.334V3.86683H12.264C12.2306 4.20372 11.9463 4.46683 11.6006 4.46683C11.255 4.46683 10.9707 4.20372 10.9373 3.86683H5.66403ZM5.66403 3.86683H10.9373H5.66403ZM4.33398 2.5335V2.00016C4.33398 1.63197 4.63246 1.3335 5.00065 1.3335C5.36884 1.3335 5.66732 1.63197 5.66732 2.00016V2.5335H10.934V2.00016C10.934 1.63197 11.2325 1.3335 11.6007 1.3335C11.9688 1.3335 12.2673 1.63197 12.2673 2.00016V2.5335H13.4007C14.1002 2.5335 14.6673 3.1006 14.6673 3.80016V12.6668C14.6673 13.7714 13.7719 14.6668 12.6673 14.6668H3.33398C2.22941 14.6668 1.33398 13.7714 1.33398 12.6668V3.80016C1.33398 3.1006 1.90109 2.5335 2.60065 2.5335H4.33398ZM13.334 6.26683H2.66732V12.6668C2.66732 13.035 2.96579 13.3335 3.33398 13.3335H12.6673C13.0355 13.3335 13.334 13.035 13.334 12.6668V6.26683ZM4.40065 8.66683C4.03246 8.66683 3.73398 8.36835 3.73398 8.00016C3.73398 7.63197 4.03246 7.3335 4.40065 7.3335H6.80065C7.16884 7.3335 7.46732 7.63197 7.46732 8.00016C7.46732 8.36835 7.16884 8.66683 6.80065 8.66683H4.40065ZM4.40065 11.0668C4.03246 11.0668 3.73398 10.7684 3.73398 10.4002C3.73398 10.032 4.03246 9.7335 4.40065 9.7335H9.20065C9.56884 9.7335 9.86732 10.032 9.86732 10.4002C9.86732 10.7684 9.56884 11.0668 9.20065 11.0668H4.40065Z" fill="#3B71FE"/>
</g>
</svg>
