<svg width="24" height="24" viewBox="0 0 24 24" fill="none" xmlns="http://www.w3.org/2000/svg">
<g id="icon/video/fill">
<path id="Vector" d="M21.5562 7.2C21.3942 7.2 21.2371 7.24219 21.0996 7.32656L16.8518 9.88594C16.729 9.96094 16.6554 10.0875 16.6554 10.2234V13.7859C16.6554 13.9219 16.729 14.0484 16.8518 14.1234L21.0996 16.6828C21.2371 16.7625 21.3942 16.8094 21.5562 16.8094H22.5777C22.8134 16.8094 23 16.6313 23 16.4109V7.59844C23 7.37813 22.8085 7.2 22.5777 7.2H21.5562ZM12.8594 18H3.52902C2.13929 18 1 16.9125 1 15.5906V8.40937C1 7.08281 2.13929 6 3.52411 6H12.8545C14.2442 6 15.3786 7.0875 15.3786 8.40937V15.5859C15.3835 16.9125 14.2491 18 12.8594 18Z" fill="white"/>
</g>
</svg>
