<svg width="16" height="16" viewBox="0 0 16 16" fill="none" xmlns="http://www.w3.org/2000/svg">
<g id="home">
<path id="Vector" d="M12.5685 5.87543L9.3093 3.07345C9.01053 2.81138 8.62374 2.6665 8.22289 2.6665C7.82204 2.6665 7.43525 2.81138 7.13648 3.07345L3.87724 5.87543C3.7047 6.02675 3.56702 6.21239 3.47335 6.41997C3.37969 6.62756 3.3322 6.85233 3.33404 7.07932V11.7351C3.33404 12.1589 3.50573 12.5654 3.81134 12.8651C4.11695 13.1648 4.53145 13.3332 4.96365 13.3332H11.4821C11.9143 13.3332 12.3288 13.1648 12.6344 12.8651C12.9401 12.5654 13.1117 12.1589 13.1117 11.7351V7.07399C13.1128 6.8479 13.0649 6.62415 12.9713 6.41754C12.8777 6.21093 12.7404 6.02616 12.5685 5.87543ZM9.3093 12.2678H7.13648V9.6043C7.13648 9.46302 7.19371 9.32753 7.29558 9.22763C7.39745 9.12773 7.53562 9.0716 7.67968 9.0716H8.7661C8.91016 9.0716 9.04833 9.12773 9.1502 9.22763C9.25207 9.32753 9.3093 9.46302 9.3093 9.6043V12.2678ZM12.0253 11.7351C12.0253 11.8764 11.9681 12.0119 11.8662 12.1118C11.7644 12.2117 11.6262 12.2678 11.4821 12.2678H10.3957V9.6043C10.3957 9.18046 10.224 8.77398 9.91841 8.47428C9.6128 8.17458 9.1983 8.00621 8.7661 8.00621H7.67968C7.24748 8.00621 6.83298 8.17458 6.52737 8.47428C6.22176 8.77398 6.05007 9.18046 6.05007 9.6043V12.2678H4.96365C4.81959 12.2678 4.68142 12.2117 4.57955 12.1118C4.47768 12.0119 4.42045 11.8764 4.42045 11.7351V7.07399C4.42055 6.99836 4.43707 6.92361 4.46891 6.85472C4.50076 6.78584 4.5472 6.72439 4.60514 6.67447L7.86437 3.87782C7.9635 3.79242 8.09094 3.74532 8.22289 3.74532C8.35484 3.74532 8.48228 3.79242 8.58141 3.87782L11.8406 6.67447C11.8986 6.72439 11.945 6.78584 11.9769 6.85472C12.0087 6.92361 12.0252 6.99836 12.0253 7.07399V11.7351Z" fill="#3B71FE"/>
</g>
</svg>
