<svg width="12" height="12" viewBox="0 0 12 12" fill="none" xmlns="http://www.w3.org/2000/svg">
<g id="Group 1000003598">
<path id="Vector" d="M5.99922 7.79995C6.99336 7.79995 7.79922 6.99409 7.79922 5.99995C7.79922 5.00581 6.99336 4.19995 5.99922 4.19995C5.00508 4.19995 4.19922 5.00581 4.19922 5.99995C4.19922 6.99409 5.00508 7.79995 5.99922 7.79995Z" fill="#B1B5C4"/>
<path id="Vector_2" fill-rule="evenodd" clip-rule="evenodd" d="M3 0C1.34315 0 0 1.34315 0 3V9C0 10.6568 1.34315 12 3 12H9C10.6568 12 12 10.6568 12 9V3C12 1.34315 10.6568 0 9 0H3ZM6 9C7.65684 9 9 7.65684 9 6C9 4.34315 7.65684 3 6 3C4.34315 3 3 4.34315 3 6C3 7.65684 4.34315 9 6 9ZM10.2 2.4C10.2 2.73137 9.93138 3 9.6 3C9.26862 3 9 2.73137 9 2.4C9 2.06863 9.26862 1.8 9.6 1.8C9.93138 1.8 10.2 2.06863 10.2 2.4Z" fill="#B1B5C4"/>
</g>
</svg>
