<svg width="16" height="16" viewBox="0 0 16 16" fill="none" xmlns="http://www.w3.org/2000/svg">
<g id="restaurant/icon">
<path id="Vector" d="M15.9966 2.46676C15.9973 1.97906 15.8532 1.50214 15.5825 1.09641C15.3119 0.69069 14.9269 0.37443 14.4764 0.187704C14.0259 0.00097801 13.53 -0.0478107 13.0517 0.0475196C12.5734 0.14285 12.1342 0.378009 11.7897 0.723201L9.54224 2.97064L4.35154 1.24307C4.21334 1.19963 4.06594 1.19455 3.92508 1.22836C3.78421 1.26216 3.65517 1.33359 3.55174 1.43502L1.64822 3.32255C1.55803 3.41379 1.49111 3.52539 1.45311 3.64792C1.4151 3.77046 1.40714 3.90034 1.42988 4.0266C1.45263 4.15287 1.50541 4.2718 1.58378 4.37338C1.66215 4.47496 1.7638 4.55619 1.88016 4.61023L6.02312 6.48975L3.94364 8.56923L2.57599 7.8814C2.42832 7.80149 2.25925 7.77007 2.09273 7.7916C1.92622 7.81313 1.7707 7.88652 1.64822 8.00137L0.232576 9.44901C0.0836124 9.59886 0 9.80157 0 10.0129C0 10.2242 0.0836124 10.4269 0.232576 10.5767L5.42327 15.7674C5.57312 15.9164 5.77584 16 5.98713 16C6.19843 16 6.40114 15.9164 6.55099 15.7674L7.99863 14.3518C8.11866 14.233 8.19802 14.0792 8.22531 13.9126C8.25261 13.7459 8.22645 13.5749 8.15059 13.424L7.46276 12.0564L9.54224 9.97688L11.4218 14.1198C11.4758 14.2362 11.557 14.3379 11.6586 14.4162C11.7602 14.4946 11.8791 14.5474 12.0054 14.5701C12.1317 14.5929 12.2615 14.5849 12.3841 14.5469C12.5066 14.5089 12.6182 14.442 12.7094 14.3518L14.597 12.4643C14.6984 12.3608 14.7698 12.2318 14.8036 12.0909C14.8374 11.9501 14.8324 11.8027 14.7889 11.6645L13.0614 6.47376L15.2768 4.21033C15.5065 3.98204 15.6885 3.71029 15.8121 3.41094C15.9356 3.11158 15.9984 2.79062 15.9966 2.46676ZM14.1411 3.08261L11.5497 5.67396C11.4483 5.77739 11.3769 5.90643 11.3431 6.04729C11.3093 6.18816 11.3143 6.33556 11.3578 6.47376L13.0854 11.6565L12.3655 12.3763L10.486 8.24131C10.4327 8.12388 10.3517 8.02108 10.25 7.9417C10.1484 7.86232 10.029 7.8087 9.90215 7.78543C9.77423 7.76208 9.64255 7.77027 9.51852 7.8093C9.39448 7.84832 9.28183 7.91699 9.19033 8.00937L5.89515 11.3365C5.77685 11.4547 5.69857 11.607 5.67131 11.772C5.64405 11.937 5.66919 12.1064 5.74319 12.2563L6.39903 13.6L5.95114 14.0479L1.92815 10.0169L2.40003 9.60097L3.76769 10.2888C3.91764 10.3628 4.08702 10.3879 4.252 10.3607C4.41699 10.3334 4.56928 10.2551 4.68746 10.1368L7.99863 6.80967C8.09052 6.71849 8.15892 6.60636 8.19793 6.48292C8.23694 6.35948 8.2454 6.22842 8.22259 6.10098C8.19978 5.97355 8.14637 5.85356 8.06696 5.75132C7.98755 5.64907 7.88451 5.56764 7.76668 5.514L3.59973 3.63447L4.31955 2.91465L9.50225 4.64222C9.64045 4.68565 9.78785 4.69074 9.92871 4.65693C10.0696 4.62312 10.1986 4.55169 10.302 4.45027L12.8934 1.85892C12.9731 1.77742 13.0683 1.71266 13.1733 1.66845C13.2784 1.62425 13.3913 1.60147 13.5052 1.60147C13.6192 1.60147 13.7321 1.62425 13.8371 1.66845C13.9422 1.71266 14.0374 1.77742 14.1171 1.85892C14.2005 1.93621 14.2665 2.03041 14.3106 2.13523C14.3548 2.24005 14.376 2.35307 14.373 2.46676C14.3774 2.57969 14.3591 2.69235 14.3192 2.79811C14.2794 2.90387 14.2188 3.0006 14.1411 3.08261Z" fill="#3B71FE"/>
</g>
</svg>
