<svg width="16" height="17" viewBox="0 0 16 17" fill="none" xmlns="http://www.w3.org/2000/svg">
<g id="restaurant/icon">
<path id="Vector" d="M4 11.7C3.84178 11.7 3.68711 11.7469 3.55555 11.8348C3.42399 11.9227 3.32145 12.0477 3.2609 12.1939C3.20035 12.34 3.18451 12.5009 3.21537 12.6561C3.24624 12.8113 3.32243 12.9538 3.43432 13.0657C3.5462 13.1776 3.68875 13.2538 3.84393 13.2846C3.99911 13.3155 4.15997 13.2997 4.30615 13.2391C4.45233 13.1786 4.57727 13.076 4.66518 12.9445C4.75308 12.8129 4.8 12.6582 4.8 12.5C4.8 12.2878 4.71572 12.0843 4.56569 11.9343C4.41566 11.7843 4.21218 11.7 4 11.7ZM13.648 8.5L14.632 7.516C15.0814 7.066 15.3339 6.456 15.3339 5.82C15.3339 5.18399 15.0814 4.574 14.632 4.124L12.368 1.868C11.918 1.41856 11.308 1.16611 10.672 1.16611C10.036 1.16611 9.426 1.41856 8.976 1.868L8 2.852C7.98743 2.22383 7.72904 1.62565 7.28031 1.18589C6.83158 0.74613 6.22829 0.499873 5.6 0.499999L2.4 0.5C1.76348 0.5 1.15303 0.752856 0.702944 1.20294C0.252857 1.65303 3.08337e-07 2.26348 4.19629e-07 2.9L2.3779e-06 14.1C2.48919e-06 14.7365 0.252859 15.347 0.702946 15.7971C1.15303 16.2471 1.76348 16.5 2.4 16.5L13.6 16.5C14.2365 16.5 14.847 16.2471 15.2971 15.7971C15.7471 15.347 16 14.7365 16 14.1L16 10.9C16.0001 10.2717 15.7539 9.66842 15.3141 9.21969C14.8744 8.77096 14.2762 8.51256 13.648 8.5ZM6.4 14.1C6.4 14.3122 6.31572 14.5157 6.16569 14.6657C6.01566 14.8157 5.81218 14.9 5.6 14.9L2.4 14.9C2.18783 14.9 1.98435 14.8157 1.83432 14.6657C1.68429 14.5157 1.6 14.3122 1.6 14.1L1.6 2.9C1.6 2.68783 1.68429 2.48434 1.83432 2.33431C1.98434 2.18429 2.18783 2.1 2.4 2.1L5.6 2.1C5.81217 2.1 6.01566 2.18428 6.16569 2.33431C6.31571 2.48434 6.4 2.68783 6.4 2.9L6.4 14.1ZM8 5.108L10.112 2.996C10.2619 2.847 10.4647 2.76336 10.676 2.76336C10.8873 2.76336 11.0901 2.847 11.24 2.996L13.504 5.3C13.653 5.44989 13.7366 5.65265 13.7366 5.864C13.7366 6.07535 13.653 6.27811 13.504 6.428L11.2 8.732L8 11.892L8 5.108ZM14.4 14.1C14.4 14.3122 14.3157 14.5157 14.1657 14.6657C14.0157 14.8157 13.8122 14.9 13.6 14.9L7.856 14.9C7.93807 14.6629 7.98392 14.4148 7.992 14.164L12.056 10.1L13.6 10.1C13.8122 10.1 14.0157 10.1843 14.1657 10.3343C14.3157 10.4843 14.4 10.6878 14.4 10.9L14.4 14.1Z" fill="white"/>
</g>
</svg>
