<svg width="16" height="16" viewBox="0 0 16 16" fill="none" xmlns="http://www.w3.org/2000/svg">
<g id="rout">
<path id="Vector" d="M12.8478 9.45438H11.8781V7.99984C11.8781 7.87125 11.8271 7.74792 11.7361 7.657C11.6452 7.56607 11.5219 7.51499 11.3933 7.51499H8.4842V6.54529H9.45389C9.58248 6.54529 9.70581 6.49421 9.79673 6.40328C9.88766 6.31236 9.93874 6.18903 9.93874 6.06044V3.15135C9.93874 3.02276 9.88766 2.89944 9.79673 2.80851C9.70581 2.71759 9.58248 2.6665 9.45389 2.6665H6.5448C6.41621 2.6665 6.29289 2.71759 6.20196 2.80851C6.11104 2.89944 6.05995 3.02276 6.05995 3.15135V6.06044C6.05995 6.18903 6.11104 6.31236 6.20196 6.40328C6.29289 6.49421 6.41621 6.54529 6.5448 6.54529H7.5145V7.51499H4.60541C4.47682 7.51499 4.3535 7.56607 4.26257 7.657C4.17164 7.74792 4.12056 7.87125 4.12056 7.99984V9.45438H3.15086C3.02227 9.45438 2.89895 9.50546 2.80802 9.59639C2.7171 9.68732 2.66602 9.81064 2.66602 9.93923V12.8483C2.66602 12.9769 2.7171 13.1002 2.80802 13.1912C2.89895 13.2821 3.02227 13.3332 3.15086 13.3332H6.05995C6.18854 13.3332 6.31187 13.2821 6.40279 13.1912C6.49372 13.1002 6.5448 12.9769 6.5448 12.8483V9.93923C6.5448 9.81064 6.49372 9.68732 6.40279 9.59639C6.31187 9.50546 6.18854 9.45438 6.05995 9.45438H5.09026V8.48469H10.9084V9.45438H9.93874C9.81015 9.45438 9.68683 9.50546 9.5959 9.59639C9.50498 9.68732 9.45389 9.81064 9.45389 9.93923V12.8483C9.45389 12.9769 9.50498 13.1002 9.5959 13.1912C9.68683 13.2821 9.81015 13.3332 9.93874 13.3332H12.8478C12.9764 13.3332 13.0997 13.2821 13.1907 13.1912C13.2816 13.1002 13.3327 12.9769 13.3327 12.8483V9.93923C13.3327 9.81064 13.2816 9.68732 13.1907 9.59639C13.0997 9.50546 12.9764 9.45438 12.8478 9.45438ZM5.57511 10.4241V12.3635H3.63571V10.4241H5.57511ZM7.02965 5.57559V3.6362H8.96905V5.57559H7.02965ZM12.363 12.3635H10.4236V10.4241H12.363V12.3635Z" fill="#3B71FE"/>
</g>
</svg>
