<svg width="24" height="25" viewBox="0 0 24 25" fill="none" xmlns="http://www.w3.org/2000/svg">
<g id="rout">
<path id="Vector" d="M19.2727 14.6818H17.8182V12.5C17.8182 12.3071 17.7416 12.1221 17.6052 11.9857C17.4688 11.8494 17.2838 11.7727 17.0909 11.7727L12.7273 11.7727L12.7273 10.3182H14.1818C14.3747 10.3182 14.5597 10.2416 14.6961 10.1052C14.8325 9.96878 14.9091 9.78379 14.9091 9.59091V5.22727C14.9091 5.03439 14.8325 4.8494 14.6961 4.71301C14.5597 4.57662 14.3747 4.5 14.1818 4.5H9.81818C9.6253 4.5 9.44031 4.57662 9.30392 4.71301C9.16753 4.8494 9.09091 5.03439 9.09091 5.22727V9.59091C9.09091 9.78379 9.16753 9.96878 9.30392 10.1052C9.44031 10.2416 9.6253 10.3182 9.81818 10.3182H11.2727V11.7727H6.90909C6.71621 11.7727 6.53122 11.8494 6.39483 11.9857C6.25844 12.1221 6.18182 12.3071 6.18182 12.5L6.18182 14.6818H4.72727C4.53439 14.6818 4.3494 14.7584 4.21301 14.8948C4.07662 15.0312 4 15.2162 4 15.4091V19.7727C4 19.9656 4.07662 20.1506 4.21301 20.287C4.3494 20.4234 4.53439 20.5 4.72727 20.5H9.09091C9.28379 20.5 9.46878 20.4234 9.60517 20.287C9.74156 20.1506 9.81818 19.9656 9.81818 19.7727V15.4091C9.81818 15.2162 9.74156 15.0312 9.60517 14.8948C9.46878 14.7584 9.28379 14.6818 9.09091 14.6818H7.63636L7.63636 13.2273L16.3636 13.2273V14.6818H14.9091C14.7162 14.6818 14.5312 14.7584 14.3948 14.8948C14.2584 15.0312 14.1818 15.2162 14.1818 15.4091V19.7727C14.1818 19.9656 14.2584 20.1506 14.3948 20.287C14.5312 20.4234 14.7162 20.5 14.9091 20.5H19.2727C19.4656 20.5 19.6506 20.4234 19.787 20.287C19.9234 20.1506 20 19.9656 20 19.7727L20 15.4091C20 15.2162 19.9234 15.0312 19.787 14.8948C19.6506 14.7584 19.4656 14.6818 19.2727 14.6818ZM8.36364 16.1364V19.0455H5.45455V16.1364H8.36364ZM10.5455 8.86364V5.95455H13.4545V8.86364H10.5455ZM18.5455 19.0455H15.6364V16.1364H18.5455V19.0455Z" fill="white"/>
</g>
</svg>
