<svg width="29" height="28" viewBox="0 0 29 28" fill="none" xmlns="http://www.w3.org/2000/svg">
<g id="g10992">
<path id="path10984" d="M11.1554 23.7766C0.0641495 18.1821 1.72346 8.21699 4.60543 3.75891C3.81944 4.54563 3.12078 5.41976 2.42212 6.38131C1.63613 7.69251 -0.28518 11.2765 0.85014 15.7345C1.89813 20.1926 5.04209 23.2521 7.57473 24.9129C11.592 27.5353 15.522 28.1472 18.2293 27.9724C22.3339 27.7101 25.0412 25.35 26.4385 23.1647C27.2245 21.8535 27.6612 20.6297 27.7485 20.1926C27.3118 20.8045 22.0719 29.1962 11.1554 23.7766Z" fill="#C93F1F"/>
<path id="path10986" d="M18.5777 23.5139C18.403 23.5139 18.2284 23.5139 17.9664 23.6013C15.6957 23.6013 13.1631 22.8146 11.4165 21.9405C10.1065 21.2412 8.35983 20.1048 7.04985 18.3565C0.49992 9.87743 9.05849 1.22352 11.4165 0.174561C10.9798 0.261974 10.4558 0.349387 9.84448 0.524214C8.44716 0.96128 6.43852 2.01024 4.60454 3.75851C4.34254 4.10816 4.08055 4.54523 3.81855 4.89488C2.94523 6.20608 1.19858 9.6152 2.15923 13.9859C3.20722 18.3565 6.26385 21.3286 8.70916 22.902C12.6391 25.5244 16.3944 26.0489 19.1017 25.8741C23.119 25.6118 25.739 23.2517 27.049 21.2412C27.3109 20.8915 27.4856 20.5419 27.6603 20.1922C27.6603 20.0174 27.7476 19.93 27.7476 19.93C27.8349 19.5803 27.9223 18.881 28.0096 18.7062C28.2716 16.9579 28.0969 15.2096 27.8349 13.7236C27.3983 16.7831 24.953 22.902 18.5777 23.5139Z" fill="#F39200"/>
<path id="path10988" d="M25.7408 8.3917C25.4788 7.95464 25.1294 7.43016 25.1294 7.34274C24.7801 6.90568 24.4308 6.3812 24.1688 6.03154C23.4701 5.15741 22.2475 5.07 21.3742 5.7693C20.5008 6.46861 20.4135 7.6924 21.0248 8.56653C21.8108 9.52807 22.2475 10.3148 22.7715 11.5386C23.0335 12.0631 23.4701 13.2868 23.7321 14.7729C23.9068 16.0841 24.0815 18.7065 22.6841 20.8044C22.2475 21.5037 21.1122 22.9897 18.9288 23.4268C18.8415 23.4268 18.6669 23.5142 18.4922 23.5142H19.1908C22.6841 23.252 25.0421 21.2414 26.1774 19.4058C27.0508 18.0072 27.4001 16.6085 27.4001 16.6085C27.4874 16.2589 27.5748 15.7344 27.5748 15.5596C27.6621 14.9477 27.7494 14.3358 27.6621 13.7239C27.4874 13.0246 27.4001 12.4127 27.2254 11.8882C26.9634 10.577 26.3521 9.44066 25.7408 8.3917Z" fill="#007DB0"/>
<path id="path10990" d="M6.17665 16.6959C5.91465 16.084 5.65265 15.3847 5.47799 14.6854C5.21599 13.7239 5.12866 11.1015 6.61331 8.91615C8.27262 6.556 10.1066 5.06997 14.3859 4.98256C15.7832 4.98256 16.8312 4.28325 17.0059 2.88464C17.1805 1.48603 16.2199 0.26224 14.7352 0.0874133C14.2112 0 13.6872 0 13.1632 0C13.1632 0 12.4646 0 11.4166 0.174827C9.66994 0.874133 7.31197 2.44757 5.73998 4.98256C5.04132 6.11893 3.38201 9.09098 4.34267 13.0246C4.86666 15.2099 5.91465 16.9582 7.1373 18.3568C6.78797 17.8323 6.43864 17.3078 6.17665 16.6959Z" fill="#007DB0"/>
</g>
</svg>
