<svg width="79" height="25" viewBox="0 0 79 25" fill="none" xmlns="http://www.w3.org/2000/svg">
<g id="g10982">
<path id="polygon10966" d="M33.7812 14.4827H33.8686L36.7505 6.00366H40.5931L35.7025 18.5038H31.5979L26.4453 6.00366H30.6373L33.7812 14.4827Z" fill="#37474D"/>
<path id="path10968" d="M11.426 9.06334H7.67074V13.1718C7.67074 13.5214 7.67074 13.7837 7.75807 14.1333C7.75807 14.3956 7.8454 14.6578 8.02007 14.8326C8.1074 15.0074 8.3694 15.1823 8.63139 15.2697C8.89339 15.3571 9.24272 15.4445 9.67938 15.4445C9.94138 15.4445 10.2034 15.4445 10.5527 15.3571C10.902 15.3571 11.164 15.1823 11.426 15.0949V18.3291C10.9894 18.504 10.4654 18.5914 9.94138 18.6788C9.41738 18.7662 8.98072 18.7662 8.45673 18.7662C7.75807 18.7662 7.05941 18.6788 6.44808 18.5914C5.83676 18.4166 5.31277 18.2417 4.8761 17.9795C4.43944 17.7173 4.09011 17.2802 3.82812 16.8431C3.56612 16.4061 3.47879 15.7942 3.47879 15.0949V9.15076H0.771484V6.09129H3.47879V2.33252H7.67074V6.00388H11.426V9.06334Z" fill="#37474D"/>
<path id="path10970" d="M12.5605 6.00383H16.4032V8.01433C16.8398 7.22761 17.2765 6.70313 17.8878 6.26607C18.4118 5.91642 19.1978 5.65417 19.9838 5.65417H20.6825C20.9445 5.65417 21.1191 5.74159 21.2938 5.74159V9.23812C21.0318 9.15071 20.7698 9.06329 20.5078 9.06329C20.2458 9.06329 19.9838 8.97588 19.6345 8.97588C18.9358 8.97588 18.3245 9.06329 17.8878 9.32553C17.4512 9.50036 17.1018 9.85001 16.9272 10.1997C16.6652 10.5493 16.5778 10.9864 16.4905 11.5109C16.4032 12.0353 16.4032 12.5598 16.4032 13.1717V18.3291H12.5605V6.00383Z" fill="#37474D"/>
<path id="path10972" d="M24.0907 4.77992C24.6147 4.77992 25.1387 4.60509 25.488 4.16803C25.9246 3.73096 26.0993 3.29389 26.0993 2.76941C26.0993 2.24494 25.9246 1.72046 25.488 1.3708C25.0513 0.933737 24.6147 0.758911 24.0907 0.758911C23.5667 0.758911 23.0427 0.933737 22.6934 1.3708C22.2567 1.80787 22.082 2.24494 22.082 2.76941C22.082 3.29389 22.2567 3.81837 22.6934 4.16803C23.0427 4.51768 23.4793 4.77992 24.0907 4.77992Z" fill="#37474D"/>
<path id="rect10974" d="M22.1699 6.00366H26.0125V18.4163H22.1699V6.00366Z" fill="#37474D"/>
<path id="path10976" d="M47.1473 12.9965H46.0993C45.6627 12.9965 45.226 13.0839 44.8767 13.1714C44.44 13.2588 44.0907 13.4336 43.8287 13.6958C43.5667 13.9581 43.392 14.3077 43.392 14.6574C43.392 15.0945 43.5667 15.4441 44.0033 15.7063C44.3527 15.9686 44.7893 16.056 45.226 16.056C45.5753 16.056 45.9246 15.9686 46.274 15.8812C46.6233 15.7938 46.9726 15.6189 47.2346 15.4441C47.4966 15.2693 47.7586 15.007 47.846 14.7448C48.0206 14.4826 48.108 14.1329 48.108 13.6958V12.9091H47.1473V12.9965ZM48.0206 16.9301C47.584 17.6294 46.9726 18.0665 46.274 18.3287C45.5753 18.591 44.7893 18.7658 44.0033 18.7658C43.392 18.7658 42.868 18.6784 42.344 18.5036C41.82 18.3287 41.296 18.0665 40.9467 17.8043C40.51 17.4546 40.248 17.105 39.986 16.5805C39.7241 16.1434 39.6367 15.5315 39.6367 14.9196C39.6367 14.2203 39.8114 13.6084 40.0734 13.0839C40.3354 12.5595 40.6847 12.2098 41.1214 11.8602C41.558 11.5105 42.082 11.2483 42.6934 11.0734C43.3047 10.8986 43.916 10.7238 44.5273 10.6364C45.1387 10.549 45.75 10.4615 46.3613 10.4615H48.108C48.108 9.76224 47.846 9.23776 47.4093 8.8007C46.8853 8.36363 46.3613 8.1888 45.6627 8.1888C45.0513 8.1888 44.44 8.36363 43.916 8.62587C43.392 8.88811 42.9553 9.23776 42.5187 9.67483L40.51 7.57691C41.2087 6.87761 42.082 6.44054 43.0427 6.09089C44.0033 5.74123 44.964 5.56641 46.012 5.56641C47.1473 5.56641 48.0206 5.74123 48.8066 6.00347C49.5053 6.26571 50.1166 6.70278 50.5533 7.22726C50.9899 7.75174 51.2519 8.45104 51.4266 9.23776C51.6012 10.0245 51.6886 10.986 51.6886 11.9476V18.2413H48.1953V16.9301H48.0206Z" fill="#37474D"/>
<path id="path10978" d="M77.9757 9.58764C77.6264 8.80092 77.1897 8.10162 76.6657 7.48972C76.1417 6.87783 75.4431 6.44076 74.6571 6.17852C73.8711 5.82887 73.0851 5.74146 72.2118 5.74146C71.3384 5.74146 70.5524 5.91628 69.7665 6.17852C68.9805 6.52818 68.3691 6.96524 67.7578 7.48972C67.2338 8.10162 66.7098 8.71351 66.4478 9.58764C66.0985 10.3744 65.9238 11.2485 65.9238 12.2975C65.9238 13.3464 66.0985 14.2206 66.4478 15.0073C66.7972 15.794 67.2338 16.4933 67.7578 17.1052C68.2818 17.7171 68.9805 18.1542 69.7665 18.4164C70.5524 18.766 71.3384 18.8535 72.2118 18.8535C73.0851 18.8535 73.8711 18.6786 74.6571 18.4164C75.4431 18.1542 76.0544 17.6297 76.6657 17.1052C77.1897 16.4933 77.7137 15.8814 77.9757 15.0073C78.325 14.2206 78.4997 13.3464 78.4997 12.2975C78.4997 11.2485 78.325 10.3744 77.9757 9.58764ZM74.3077 14.4828C73.7837 15.0947 73.1724 15.3569 72.2991 15.3569C71.4258 15.3569 70.7271 15.0947 70.2904 14.4828C69.7665 13.8709 69.5918 13.1716 69.5918 12.21C69.5918 11.2485 69.8538 10.5492 70.2904 9.9373C70.8144 9.3254 71.4258 9.06316 72.2991 9.06316C73.1724 9.06316 73.8711 9.3254 74.3077 9.9373C74.8317 10.5492 75.0064 11.2485 75.0064 12.21C75.0064 13.1716 74.7444 13.9583 74.3077 14.4828Z" fill="#37474D"/>
<path id="path10980" d="M61.8189 6.09109V7.75194C61.8189 7.75194 61.5569 7.31487 61.2949 7.14005C61.0329 6.87781 60.7709 6.70298 60.3342 6.52815C59.9849 6.35333 59.5483 6.1785 59.1116 6.09109C58.6749 6.00367 58.1509 5.91626 57.6269 5.91626C56.7536 5.91626 55.9676 6.09109 55.269 6.44074C54.5703 6.79039 53.959 7.22746 53.5223 7.92677C53.0857 8.53866 52.8237 9.15055 52.649 10.0247C52.4743 10.8114 52.387 11.5981 52.387 12.4723C52.387 13.4338 52.5617 14.3079 52.7363 15.0947C52.9983 15.8814 53.2603 16.4933 53.697 17.1052C54.221 17.7171 54.9196 18.1541 55.6183 18.4164C56.4043 18.766 57.1903 18.8534 58.1509 18.8534C58.7623 18.8534 59.3736 18.6786 59.9849 18.5038C60.6836 18.2415 61.2949 17.8045 61.4696 17.1926V18.4164C61.4696 19.2905 61.2949 19.9898 60.7709 20.6017C60.2469 21.2136 59.4609 21.4758 58.2383 21.4758C57.4523 21.4758 56.9283 21.4758 56.1423 21.301C55.4436 21.1262 54.5703 20.7765 53.959 20.3394L52.125 23.0493C53.0857 23.7486 54.0463 24.1856 55.0943 24.5353C56.1423 24.7975 57.2776 24.8849 58.3256 24.8849C60.7709 24.8849 62.5176 24.273 63.6529 23.0493C64.8755 21.8255 65.3122 20.0772 65.3122 17.7171V6.09109H61.8189ZM60.9456 14.4828C60.4216 15.0947 59.8102 15.3569 58.9369 15.3569C58.0636 15.3569 57.3649 15.0947 56.9283 14.4828C56.4043 13.8709 56.2296 13.1716 56.2296 12.21C56.2296 11.2485 56.4916 10.5492 56.9283 9.93727C57.4523 9.32538 58.0636 9.06314 58.9369 9.06314C59.8102 9.06314 60.5089 9.32538 60.9456 9.93727C61.4696 10.5492 61.6442 11.2485 61.6442 12.21C61.6442 13.1716 61.3822 13.9583 60.9456 14.4828Z" fill="#37474D"/>
</g>
</svg>
